<svg xmlns="http://www.w3.org/2000/svg" width="512" height="512" viewBox="0 0 512 512" role="img" aria-label="ASO College of Stewardship">
  <defs>
    <linearGradient id="g" x1="0" y1="0" x2="1" y2="1">
      <stop offset="0" stop-color="#16a34a"/>
      <stop offset="1" stop-color="#22c55e"/>
    </linearGradient>
  </defs>
  <rect x="56" y="56" width="400" height="400" rx="96" fill="url(#g)"/>
  <path d="M160 338l58-170h36l58 170h-34l-12-38h-64l-12 38h-30zm49-64h48l-24-74-24 74z" fill="#ffffff" opacity="0.95"/>
  <path d="M330 191c15 0 27 4 36 12 9 8 13 19 13 34 0 17-6 30-18 39-12 9-29 13-52 13h-39v-98h60zm-6 71c11 0 19-2 25-6 6-4 9-10 9-19 0-8-3-14-8-18-6-4-13-6-23-6h-28v49h25z" fill="#ffffff" opacity="0.95"/>
  <circle cx="256" cy="256" r="188" fill="none" stroke="rgba(255,255,255,0.25)" stroke-width="10"/>
</svg>
